<svg width="199" height="32" viewBox="0 0 199 32" fill="none" xmlns="http://www.w3.org/2000/svg">
<path d="M185.418 25V9.68404H188.96L189.254 11.266H189.464C189.977 10.678 190.584 10.23 191.284 9.92205C191.993 9.60471 192.773 9.44604 193.622 9.44604C194.537 9.44604 195.349 9.63271 196.058 10.006C196.777 10.37 197.341 10.9674 197.752 11.798C198.172 12.6287 198.382 13.7394 198.382 15.13V25H194.112V15.424C194.112 14.5654 193.939 13.9774 193.594 13.66C193.249 13.3427 192.782 13.184 192.194 13.184C191.905 13.184 191.606 13.226 191.298 13.31C190.99 13.394 190.696 13.5247 190.416 13.702C190.136 13.8794 189.893 14.1034 189.688 14.374V25H185.418Z" fill="black"/>
<path d="M174.517 31.44C173.798 31.44 173.028 31.3934 172.207 31.3C171.395 31.2067 170.62 31.062 169.883 30.866V27.492C170.639 27.6974 171.376 27.8514 172.095 27.954C172.814 28.0567 173.504 28.108 174.167 28.108C175.52 28.108 176.514 27.8327 177.149 27.282C177.793 26.7314 178.115 25.7887 178.115 24.454V23.376H177.919C177.546 23.9174 177.051 24.3467 176.435 24.664C175.828 24.9814 175.128 25.14 174.335 25.14C173.383 25.14 172.487 24.8834 171.647 24.37C170.816 23.8567 170.14 23.0494 169.617 21.948C169.094 20.8467 168.833 19.4094 168.833 17.636C168.833 14.976 169.5 12.946 170.835 11.546C172.179 10.146 174.232 9.44604 176.995 9.44604C177.592 9.44604 178.208 9.47871 178.843 9.54404C179.478 9.60004 180.098 9.69338 180.705 9.82404C181.312 9.94538 181.872 10.0947 182.385 10.272V23.698C182.385 26.4327 181.732 28.4067 180.425 29.62C179.118 30.8334 177.149 31.44 174.517 31.44ZM176.029 21.626C176.412 21.626 176.79 21.556 177.163 21.416C177.546 21.2667 177.863 21.052 178.115 20.772V12.862C177.919 12.8154 177.69 12.778 177.429 12.75C177.168 12.722 176.902 12.708 176.631 12.708C175.52 12.708 174.662 13.044 174.055 13.716C173.458 14.388 173.159 15.5734 173.159 17.272C173.159 18.42 173.276 19.3114 173.509 19.946C173.742 20.5714 174.074 21.01 174.503 21.262C174.932 21.5047 175.441 21.626 176.029 21.626Z" fill="black"/>
<path d="M162.176 25.0001V9.68406H166.46V25.0001H162.176ZM164.318 7.44406C163.413 7.44406 162.741 7.23873 162.302 6.82806C161.873 6.41739 161.658 5.85273 161.658 5.13406C161.658 4.39673 161.873 3.82739 162.302 3.42606C162.741 3.01539 163.413 2.81006 164.318 2.81006C165.224 2.81006 165.891 3.01539 166.32 3.42606C166.759 3.82739 166.978 4.39673 166.978 5.13406C166.978 5.85273 166.759 6.41739 166.32 6.82806C165.891 7.23873 165.224 7.44406 164.318 7.44406Z" fill="black"/>
<path d="M153.685 25.294C152.901 25.294 152.136 25.238 151.389 25.126C150.642 25.0234 149.933 24.86 149.261 24.636V21.374C149.933 21.5887 150.638 21.7567 151.375 21.878C152.112 21.99 152.859 22.046 153.615 22.046C154.539 22.046 155.192 21.9107 155.575 21.64C155.967 21.36 156.163 20.982 156.163 20.506C156.163 20.114 156.06 19.82 155.855 19.624C155.65 19.4187 155.318 19.2647 154.861 19.162L152.649 18.686C151.352 18.4154 150.39 17.9207 149.765 17.202C149.14 16.4834 148.827 15.5127 148.827 14.29C148.827 12.834 149.387 11.6627 150.507 10.776C151.627 9.88938 153.307 9.44604 155.547 9.44604C156.238 9.44604 156.896 9.48338 157.521 9.55805C158.156 9.63271 158.734 9.74005 159.257 9.88004V13.142C158.706 12.9927 158.137 12.8807 157.549 12.806C156.961 12.7314 156.35 12.694 155.715 12.694C154.95 12.694 154.352 12.7687 153.923 12.918C153.494 13.058 153.19 13.2447 153.013 13.478C152.845 13.7114 152.761 13.968 152.761 14.248C152.761 14.5934 152.859 14.8687 153.055 15.074C153.26 15.27 153.592 15.424 154.049 15.536L156.275 15.998C157.544 16.2687 158.496 16.7447 159.131 17.426C159.775 18.1074 160.097 19.092 160.097 20.38C160.097 21.9014 159.532 23.1007 158.403 23.978C157.274 24.8554 155.701 25.294 153.685 25.294Z" fill="black"/>
<path d="M142.426 25.294C140.606 25.294 139.113 25.0234 137.946 24.482C136.789 23.9314 135.93 23.068 135.37 21.892C134.819 20.716 134.544 19.19 134.544 17.314C134.544 15.5967 134.805 14.1547 135.328 12.988C135.851 11.812 136.607 10.93 137.596 10.342C138.585 9.74471 139.789 9.44604 141.208 9.44604C142.552 9.44604 143.681 9.74471 144.596 10.342C145.52 10.9394 146.22 11.8307 146.696 13.016C147.172 14.2014 147.41 15.676 147.41 17.44V18.616H137.302V16.082H144.078L143.42 16.348C143.42 15.2747 143.336 14.4394 143.168 13.842C143 13.2354 142.748 12.8154 142.412 12.582C142.076 12.3394 141.661 12.218 141.166 12.218C140.671 12.218 140.247 12.3394 139.892 12.582C139.547 12.8154 139.281 13.2354 139.094 13.842C138.917 14.4394 138.828 15.27 138.828 16.334V18.126C138.828 19.0874 138.954 19.848 139.206 20.408C139.467 20.968 139.897 21.3694 140.494 21.612C141.101 21.8454 141.931 21.962 142.986 21.962C143.555 21.962 144.143 21.92 144.75 21.836C145.357 21.7427 145.977 21.6167 146.612 21.458V24.776C145.856 24.9534 145.137 25.084 144.456 25.168C143.784 25.252 143.107 25.294 142.426 25.294Z" fill="black"/>
<path d="M121.165 25.224C120.624 25.224 120.059 25.21 119.471 25.182C118.883 25.1633 118.29 25.1307 117.693 25.084C117.096 25.0467 116.503 24.9907 115.915 24.916V4.68599C116.522 4.55533 117.156 4.44333 117.819 4.34999C118.482 4.24733 119.158 4.17266 119.849 4.12599C120.549 4.06999 121.24 4.04199 121.921 4.04199C125.468 4.04199 128.132 4.90066 129.915 6.61799C131.707 8.32599 132.603 11 132.603 14.64C132.603 17.1133 132.178 19.1293 131.329 20.688C130.489 22.2467 129.22 23.3947 127.521 24.132C125.832 24.86 123.713 25.224 121.165 25.224ZM122.285 21.64C123.573 21.64 124.651 21.416 125.519 20.968C126.387 20.52 127.04 19.7827 127.479 18.756C127.918 17.7293 128.137 16.3527 128.137 14.626C128.137 12.9087 127.913 11.5367 127.465 10.51C127.026 9.48332 126.373 8.74599 125.505 8.29799C124.646 7.84066 123.582 7.61199 122.313 7.61199C122.005 7.61199 121.664 7.63066 121.291 7.66799C120.918 7.69599 120.572 7.73799 120.255 7.79399V21.556C120.628 21.584 120.978 21.6073 121.305 21.626C121.641 21.6353 121.968 21.64 122.285 21.64Z" fill="black"/>
<path d="M98.0413 25.2661C97.1359 25.2661 96.3239 25.0841 95.6052 24.7201C94.8866 24.3467 94.3172 23.7448 93.8972 22.9141C93.4866 22.0834 93.2812 20.9774 93.2812 19.5961V9.68408H97.5512V19.2741C97.5512 20.1234 97.7239 20.7114 98.0693 21.0381C98.4146 21.3648 98.8626 21.5281 99.4132 21.5281C99.6746 21.5281 99.9546 21.4861 100.253 21.4021C100.561 21.3181 100.855 21.1874 101.135 21.0101C101.415 20.8328 101.653 20.6087 101.849 20.3381V9.68408H106.119V25.0001H102.577L102.283 23.4321H102.087C101.555 24.0387 100.944 24.4961 100.253 24.8041C99.5719 25.1121 98.8346 25.2661 98.0413 25.2661Z" fill="black"/>
<path d="M84.0654 25.294C82.6374 25.294 81.4054 25.0094 80.3694 24.44C79.3334 23.8707 78.5354 23.0074 77.9754 21.85C77.4247 20.6834 77.1494 19.1994 77.1494 17.398C77.1494 15.578 77.4201 14.0847 77.9614 12.918C78.5121 11.742 79.3054 10.8694 80.3414 10.3C81.3774 9.73071 82.6187 9.44604 84.0654 9.44604C85.5214 9.44604 86.7674 9.73538 87.8034 10.314C88.8394 10.8834 89.6281 11.756 90.1694 12.932C90.7201 14.108 90.9954 15.5874 90.9954 17.37C90.9954 19.1714 90.7154 20.66 90.1554 21.836C89.6047 23.0027 88.8114 23.8707 87.7754 24.44C86.7394 25.0094 85.5027 25.294 84.0654 25.294ZM84.0654 22.074C84.6161 22.074 85.0827 21.9434 85.4654 21.682C85.8574 21.4114 86.1561 20.94 86.3614 20.268C86.5667 19.596 86.6694 18.644 86.6694 17.412C86.6694 16.152 86.5667 15.1814 86.3614 14.5C86.1561 13.8094 85.8574 13.3334 85.4654 13.072C85.0734 12.8014 84.6067 12.666 84.0654 12.666C83.5241 12.666 83.0574 12.7967 82.6654 13.058C82.2827 13.3194 81.9887 13.7907 81.7834 14.472C81.5781 15.1534 81.4754 16.1147 81.4754 17.356C81.4754 18.6067 81.5781 19.5727 81.7834 20.254C81.9887 20.9354 82.2827 21.4114 82.6654 21.682C83.0481 21.9434 83.5147 22.074 84.0654 22.074Z" fill="black"/>
<path d="M67.5013 25V14.402L68.3833 17.748L60.4453 4.28003H65.0373L70.3713 13.436H69.1813L74.4733 4.28003H78.7293L70.9453 17.748L71.8413 14.472V25H67.5013Z" fill="black"/>
<path d="M46.8506 25.294C45.4226 25.294 44.1906 25.0094 43.1546 24.44C42.1186 23.8707 41.3206 23.0074 40.7606 21.85C40.2099 20.6834 39.9346 19.1994 39.9346 17.398C39.9346 15.578 40.2052 14.0847 40.7466 12.918C41.2972 11.742 42.0906 10.8694 43.1266 10.3C44.1626 9.73071 45.4039 9.44604 46.8506 9.44604C48.3066 9.44604 49.5526 9.73538 50.5886 10.314C51.6246 10.8834 52.4132 11.756 52.9546 12.932C53.5052 14.108 53.7806 15.5874 53.7806 17.37C53.7806 19.1714 53.5006 20.66 52.9406 21.836C52.3899 23.0027 51.5966 23.8707 50.5606 24.44C49.5246 25.0094 48.2879 25.294 46.8506 25.294ZM46.8506 22.074C47.4012 22.074 47.8679 21.9434 48.2506 21.682C48.6426 21.4114 48.9412 20.94 49.1466 20.268C49.3519 19.596 49.4546 18.644 49.4546 17.412C49.4546 16.152 49.3519 15.1814 49.1466 14.5C48.9412 13.8094 48.6426 13.3334 48.2506 13.072C47.8586 12.8014 47.3919 12.666 46.8506 12.666C46.3092 12.666 45.8426 12.7967 45.4506 13.058C45.0679 13.3194 44.7739 13.7907 44.5686 14.472C44.3632 15.1534 44.2606 16.1147 44.2606 17.356C44.2606 18.6067 44.3632 19.5727 44.5686 20.254C44.7739 20.9354 45.0679 21.4114 45.4506 21.682C45.8332 21.9434 46.2999 22.074 46.8506 22.074Z" fill="black"/>
<path d="M30.258 25V8.00403H24.126V4.28003H40.744V8.00403H34.612V25H30.258Z" fill="black"/>
<path d="M4 25.0672V9.13084C4 8.28371 4.98742 7.82032 5.63902 8.36165L15.9977 16.9673C16.5034 17.3874 16.473 18.1729 15.9363 18.5528L5.57767 25.8835C4.91537 26.3522 4 25.8786 4 25.0672Z" stroke="black" stroke-width="3"/>
<line x1="15.0735" y1="8.32219" x2="1.80012" y2="21.0078" stroke="#6298FB" stroke-width="3"/>
<line y1="-1.5" x2="22.431" y2="-1.5" transform="matrix(0.777146 0.62932 -0.679341 0.733823 4.44141 2.83984)" stroke="#6298FB" stroke-width="3"/>
</svg>
