<svg width="202" height="29" viewBox="0 0 202 29" fill="none" xmlns="http://www.w3.org/2000/svg">
<path d="M188.267 22.19V6.87399H191.809L192.103 8.45599H192.313C192.826 7.86799 193.433 7.41999 194.133 7.11199C194.842 6.79465 195.621 6.63599 196.471 6.63599C197.385 6.63599 198.197 6.82265 198.907 7.19599C199.625 7.55999 200.19 8.15732 200.601 8.98799C201.021 9.81865 201.231 10.9293 201.231 12.32V22.19H196.961V12.614C196.961 11.7553 196.788 11.1673 196.443 10.85C196.097 10.5327 195.631 10.374 195.043 10.374C194.753 10.374 194.455 10.416 194.147 10.5C193.839 10.584 193.545 10.7147 193.265 10.892C192.985 11.0693 192.742 11.2933 192.537 11.564V22.19H188.267Z" fill="black"/>
<path d="M177.366 28.63C176.647 28.63 175.877 28.5833 175.056 28.49C174.244 28.3967 173.469 28.252 172.732 28.056V24.682C173.488 24.8873 174.225 25.0413 174.944 25.144C175.662 25.2467 176.353 25.298 177.016 25.298C178.369 25.298 179.363 25.0227 179.998 24.472C180.642 23.9213 180.964 22.9787 180.964 21.644V20.566H180.768C180.394 21.1073 179.9 21.5367 179.284 21.854C178.677 22.1713 177.977 22.33 177.184 22.33C176.232 22.33 175.336 22.0733 174.496 21.56C173.665 21.0467 172.988 20.2393 172.466 19.138C171.943 18.0367 171.682 16.5993 171.682 14.826C171.682 12.166 172.349 10.136 173.684 8.73599C175.028 7.33599 177.081 6.63599 179.844 6.63599C180.441 6.63599 181.057 6.66865 181.692 6.73399C182.326 6.78999 182.947 6.88332 183.554 7.01399C184.16 7.13532 184.72 7.28465 185.234 7.46199V20.888C185.234 23.6227 184.58 25.5967 183.274 26.81C181.967 28.0233 179.998 28.63 177.366 28.63ZM178.878 18.816C179.26 18.816 179.638 18.746 180.012 18.606C180.394 18.4567 180.712 18.242 180.964 17.962V10.052C180.768 10.0053 180.539 9.96799 180.278 9.93999C180.016 9.91199 179.75 9.89799 179.48 9.89799C178.369 9.89799 177.51 10.234 176.904 10.906C176.306 11.578 176.008 12.7633 176.008 14.462C176.008 15.61 176.124 16.5013 176.358 17.136C176.591 17.7613 176.922 18.2 177.352 18.452C177.781 18.6947 178.29 18.816 178.878 18.816Z" fill="black"/>
<path d="M165.025 22.19V6.874H169.309V22.19H165.025ZM167.167 4.634C166.262 4.634 165.589 4.42867 165.151 4.018C164.721 3.60733 164.507 3.04267 164.507 2.324C164.507 1.58667 164.721 1.01733 165.151 0.615999C165.589 0.205333 166.262 0 167.167 0C168.072 0 168.74 0.205333 169.169 0.615999C169.608 1.01733 169.827 1.58667 169.827 2.324C169.827 3.04267 169.608 3.60733 169.169 4.018C168.74 4.42867 168.072 4.634 167.167 4.634Z" fill="black"/>
<path d="M156.534 22.484C155.75 22.484 154.984 22.428 154.238 22.316C153.491 22.2133 152.782 22.05 152.11 21.826V18.564C152.782 18.7787 153.486 18.9467 154.224 19.068C154.961 19.18 155.708 19.236 156.464 19.236C157.388 19.236 158.041 19.1007 158.424 18.83C158.816 18.55 159.012 18.172 159.012 17.696C159.012 17.304 158.909 17.01 158.704 16.814C158.498 16.6087 158.167 16.4547 157.71 16.352L155.498 15.876C154.2 15.6053 153.239 15.1107 152.614 14.392C151.988 13.6733 151.676 12.7027 151.676 11.48C151.676 10.024 152.236 8.85265 153.356 7.96599C154.476 7.07932 156.156 6.63599 158.396 6.63599C159.086 6.63599 159.744 6.67332 160.37 6.74799C161.004 6.82265 161.583 6.92999 162.106 7.06999V10.332C161.555 10.1827 160.986 10.0707 160.398 9.99599C159.81 9.92132 159.198 9.88399 158.564 9.88399C157.798 9.88399 157.201 9.95865 156.772 10.108C156.342 10.248 156.039 10.4347 155.862 10.668C155.694 10.9013 155.61 11.158 155.61 11.438C155.61 11.7833 155.708 12.0587 155.904 12.264C156.109 12.46 156.44 12.614 156.898 12.726L159.124 13.188C160.393 13.4587 161.345 13.9347 161.98 14.616C162.624 15.2973 162.946 16.282 162.946 17.57C162.946 19.0913 162.381 20.2907 161.252 21.168C160.122 22.0453 158.55 22.484 156.534 22.484Z" fill="black"/>
<path d="M145.275 22.484C143.455 22.484 141.961 22.2133 140.795 21.672C139.637 21.1213 138.779 20.258 138.219 19.082C137.668 17.906 137.393 16.38 137.393 14.504C137.393 12.7867 137.654 11.3447 138.177 10.178C138.699 9.00199 139.455 8.11999 140.445 7.53199C141.434 6.93465 142.638 6.63599 144.057 6.63599C145.401 6.63599 146.53 6.93465 147.445 7.53199C148.369 8.12932 149.069 9.02065 149.545 10.206C150.021 11.3913 150.259 12.866 150.259 14.63V15.806H140.151V13.272H146.927L146.269 13.538C146.269 12.4647 146.185 11.6293 146.017 11.032C145.849 10.4253 145.597 10.0053 145.261 9.77199C144.925 9.52932 144.509 9.40799 144.015 9.40799C143.52 9.40799 143.095 9.52932 142.741 9.77199C142.395 10.0053 142.129 10.4253 141.943 11.032C141.765 11.6293 141.677 12.46 141.677 13.524V15.316C141.677 16.2773 141.803 17.038 142.055 17.598C142.316 18.158 142.745 18.5593 143.343 18.802C143.949 19.0353 144.78 19.152 145.835 19.152C146.404 19.152 146.992 19.11 147.599 19.026C148.205 18.9327 148.826 18.8067 149.461 18.648V21.966C148.705 22.1433 147.986 22.274 147.305 22.358C146.633 22.442 145.956 22.484 145.275 22.484Z" fill="black"/>
<path d="M124.014 22.4139C123.472 22.4139 122.908 22.3999 122.32 22.3719C121.732 22.3533 121.139 22.3206 120.542 22.2739C119.944 22.2366 119.352 22.1806 118.764 22.1059V1.87593C119.37 1.74527 120.005 1.63327 120.668 1.53993C121.33 1.43727 122.007 1.3626 122.698 1.31593C123.398 1.25993 124.088 1.23193 124.77 1.23193C128.316 1.23193 130.981 2.0906 132.764 3.80793C134.556 5.51593 135.452 8.18993 135.452 11.8299C135.452 14.3033 135.027 16.3193 134.178 17.8779C133.338 19.4366 132.068 20.5846 130.37 21.3219C128.68 22.0499 126.562 22.4139 124.014 22.4139ZM125.134 18.8299C126.422 18.8299 127.5 18.6059 128.368 18.1579C129.236 17.7099 129.889 16.9726 130.328 15.9459C130.766 14.9193 130.986 13.5426 130.986 11.8159C130.986 10.0986 130.762 8.7266 130.314 7.69993C129.875 6.67327 129.222 5.93593 128.354 5.48793C127.495 5.0306 126.431 4.80193 125.162 4.80193C124.854 4.80193 124.513 4.8206 124.14 4.85793C123.766 4.88593 123.421 4.92793 123.104 4.98393V18.7459C123.477 18.7739 123.827 18.7973 124.154 18.8159C124.49 18.8253 124.816 18.8299 125.134 18.8299Z" fill="black"/>
<path d="M100.89 22.456C99.9846 22.456 99.1725 22.274 98.4539 21.91C97.7352 21.5367 97.1659 20.9347 96.7459 20.104C96.3352 19.2734 96.1299 18.1674 96.1299 16.786V6.87402H100.4V16.464C100.4 17.3134 100.573 17.9014 100.918 18.228C101.263 18.5547 101.711 18.718 102.262 18.718C102.523 18.718 102.803 18.676 103.102 18.592C103.41 18.508 103.704 18.3774 103.984 18.2C104.264 18.0227 104.502 17.7987 104.698 17.528V6.87402H108.968V22.19H105.426L105.132 20.622H104.936C104.404 21.2287 103.793 21.686 103.102 21.994C102.421 22.302 101.683 22.456 100.89 22.456Z" fill="black"/>
<path d="M86.914 22.484C85.486 22.484 84.254 22.1993 83.218 21.63C82.182 21.0607 81.384 20.1973 80.824 19.04C80.2734 17.8733 79.998 16.3893 79.998 14.588C79.998 12.768 80.2687 11.2747 80.81 10.108C81.3607 8.93199 82.154 8.05932 83.19 7.48999C84.226 6.92065 85.4674 6.63599 86.914 6.63599C88.37 6.63599 89.616 6.92532 90.652 7.50399C91.688 8.07332 92.4767 8.94599 93.018 10.122C93.5687 11.298 93.844 12.7773 93.844 14.56C93.844 16.3613 93.564 17.85 93.004 19.026C92.4534 20.1927 91.66 21.0607 90.624 21.63C89.588 22.1993 88.3514 22.484 86.914 22.484ZM86.914 19.264C87.4647 19.264 87.9314 19.1333 88.314 18.872C88.706 18.6013 89.0047 18.13 89.21 17.458C89.4154 16.786 89.518 15.834 89.518 14.602C89.518 13.342 89.4154 12.3713 89.21 11.69C89.0047 10.9993 88.706 10.5233 88.314 10.262C87.922 9.99132 87.4554 9.85599 86.914 9.85599C86.3727 9.85599 85.906 9.98665 85.514 10.248C85.1314 10.5093 84.8374 10.9807 84.632 11.662C84.4267 12.3433 84.324 13.3047 84.324 14.546C84.324 15.7967 84.4267 16.7627 84.632 17.444C84.8374 18.1253 85.1314 18.6013 85.514 18.872C85.8967 19.1333 86.3634 19.264 86.914 19.264Z" fill="black"/>
<path d="M70.3499 22.19V11.592L71.2319 14.938L63.2939 1.46997H67.8859L73.2199 10.626H72.0299L77.3219 1.46997H81.5779L73.7939 14.938L74.6899 11.662V22.19H70.3499Z" fill="black"/>
<path d="M49.6992 22.484C48.2712 22.484 47.0392 22.1993 46.0032 21.63C44.9672 21.0607 44.1692 20.1973 43.6092 19.04C43.0585 17.8733 42.7832 16.3893 42.7832 14.588C42.7832 12.768 43.0539 11.2747 43.5952 10.108C44.1459 8.93199 44.9392 8.05932 45.9752 7.48999C47.0112 6.92065 48.2525 6.63599 49.6992 6.63599C51.1552 6.63599 52.4012 6.92532 53.4372 7.50399C54.4732 8.07332 55.2619 8.94599 55.8032 10.122C56.3539 11.298 56.6292 12.7773 56.6292 14.56C56.6292 16.3613 56.3492 17.85 55.7892 19.026C55.2385 20.1927 54.4452 21.0607 53.4092 21.63C52.3732 22.1993 51.1365 22.484 49.6992 22.484ZM49.6992 19.264C50.2499 19.264 50.7165 19.1333 51.0992 18.872C51.4912 18.6013 51.7899 18.13 51.9952 17.458C52.2005 16.786 52.3032 15.834 52.3032 14.602C52.3032 13.342 52.2005 12.3713 51.9952 11.69C51.7899 10.9993 51.4912 10.5233 51.0992 10.262C50.7072 9.99132 50.2405 9.85599 49.6992 9.85599C49.1579 9.85599 48.6912 9.98665 48.2992 10.248C47.9165 10.5093 47.6225 10.9807 47.4172 11.662C47.2119 12.3433 47.1092 13.3047 47.1092 14.546C47.1092 15.7967 47.2119 16.7627 47.4172 17.444C47.6225 18.1253 47.9165 18.6013 48.2992 18.872C48.6819 19.1333 49.1485 19.264 49.6992 19.264Z" fill="black"/>
<path d="M33.1066 22.19V5.19397H26.9746V1.46997H43.5926V5.19397H37.4606V22.19H33.1066Z" fill="black"/>
<line x1="1.97589" y1="4.29476" x2="21.517" y2="18.5674" stroke="#6298FB" stroke-width="6.7"/>
<path d="M23.7867 16.1388L26.4083 22.1958L19.8495 21.4358L23.7867 16.1388Z" fill="#EFE374"/>
</svg>
